# xmcd
#
# Track frame offsets:
#	150
#	17128
#	37238
#	48127
#	64562
#	83414
#	98957
#	118626
#	125400
#	141295
#	158227
#	177595
#	193898
#	221266
#
# Disc length: 3174 seconds
#
# Revision: 0
# Processed by: cddbd v1.5.2PL0 Copyright (c) Steve Scherf et al.
# Submitted via: dBpowerAMP V4.0
#
DISCID=c20c640e
DTITLE=Cisco Herzhaft - Cisco's Cooking
DYEAR=2005
DGENRE=Blues
TTITLE0=Cookin' the boogie
TTITLE1=John Henry the irishman
TTITLE2=Sweet and spicy rag
TTITLE3=J'ai du bon...
TTITLE4=Schnorer's blues
TTITLE5=Please don't try to make me
TTITLE6=Handworking blues
TTITLE7=Rock (rag) around the clock
TTITLE8=A quoi penses-tu
TTITLE9=Long lonesome blues
TTITLE10=Indian whisky blues
TTITLE11=La valse du XXème siècle
TTITLE12=Baby please don't go
TTITLE13=Rollin' and tumblin'
EXTD=
EXTT0=
EXTT1=
EXTT2=
EXTT3=
EXTT4=
EXTT5=
EXTT6=
EXTT7=
EXTT8=
EXTT9=
EXTT10=
EXTT11=
EXTT12=
EXTT13=
PLAYORDER=
